<?xml version="1.0" encoding="UTF-8" standalone="no"?>
<svg
   width="1088"
   height="687.962"
   viewBox="0 0 1088 687.962"
   version="1.1"
   id="svg1"
   sodipodi:docname="undraw_docusaurus_mountain.svg"
   xml:space="preserve"
   inkscape:version="1.4.2 (2aeb623e1d, 2025-05-12)"
   xmlns:inkscape="http://www.inkscape.org/namespaces/inkscape"
   xmlns:sodipodi="http://sodipodi.sourceforge.net/DTD/sodipodi-0.dtd"
   xmlns:xlink="http://www.w3.org/1999/xlink"
   xmlns="http://www.w3.org/2000/svg"
   xmlns:svg="http://www.w3.org/2000/svg"><defs
     id="defs1"><linearGradient
       id="linearGradient68"
       inkscape:collect="always"><stop
         style="stop-color:#000000;stop-opacity:1;"
         offset="0.7550329"
         id="stop68" /><stop
         style="stop-color:#000000;stop-opacity:0;"
         offset="1"
         id="stop69" /></linearGradient><inkscape:path-effect
       effect="powerstroke"
       message=""
       id="path-effect27"
       is_visible="true"
       lpeversion="1.3"
       scale_width="1"
       interpolator_type="CentripetalCatmullRom"
       interpolator_beta="0.75"
       start_linecap_type="round"
       end_linecap_type="round"
       offset_points="18.660169,1.867995"
       linejoin_type="spiro"
       miter_limit="4"
       not_jump="true"
       sort_points="true" /><inkscape:path-effect
       effect="simplify"
       id="path-effect26"
       is_visible="true"
       lpeversion="1.3"
       threshold="0.012"
       steps="1"
       smooth_angles="0"
       helper_size="0"
       simplify_individual_paths="false"
       simplify_just_coalesce="false"
       step="1" /><inkscape:path-effect
       effect="powerstroke"
       message=""
       id="path-effect24"
       is_visible="true"
       lpeversion="1.3"
       scale_width="1"
       interpolator_type="CentripetalCatmullRom"
       interpolator_beta="0.75"
       start_linecap_type="round"
       end_linecap_type="round"
       offset_points="11.58846,5.2834878"
       linejoin_type="spiro"
       miter_limit="4"
       not_jump="true"
       sort_points="true" /><inkscape:path-effect
       effect="simplify"
       id="path-effect23"
       is_visible="true"
       lpeversion="1.3"
       threshold="0.012"
       steps="1"
       smooth_angles="0"
       helper_size="0"
       simplify_individual_paths="false"
       simplify_just_coalesce="false"
       step="1" /><linearGradient
       inkscape:collect="always"
       xlink:href="#linearGradient68"
       id="linearGradient69"
       x1="43.142059"
       y1="117.5556"
       x2="91.40078"
       y2="117.5556"
       gradientUnits="userSpaceOnUse" /><linearGradient
       inkscape:collect="always"
       xlink:href="#linearGradient68"
       id="linearGradient70"
       gradientUnits="userSpaceOnUse"
       x1="43.142059"
       y1="117.5556"
       x2="91.40078"
       y2="117.5556"
       gradientTransform="matrix(-0.95936929,-0.09243525,-0.0925138,0.9585547,202.00111,12.533912)" /></defs><sodipodi:namedview
     id="namedview1"
     pagecolor="#ffffff"
     bordercolor="#000000"
     borderopacity="0.25"
     inkscape:showpageshadow="2"
     inkscape:pageopacity="0.0"
     inkscape:pagecheckerboard="0"
     inkscape:deskcolor="#d1d1d1"
     inkscape:zoom="1.1470588"
     inkscape:cx="544"
     inkscape:cy="587.15385"
     inkscape:window-width="1856"
     inkscape:window-height="1011"
     inkscape:window-x="0"
     inkscape:window-y="0"
     inkscape:window-maximized="1"
     inkscape:current-layer="svg1" /><title
     id="title1">Easy to Use</title><g
     id="Group_12"
     data-name="Group 12"
     transform="translate(-57 -56)"><g
       id="Group_11"
       data-name="Group 11"
       transform="translate(57 56)"><path
         id="Path_83"
         data-name="Path 83"
         d="M1017.81,560.461c-5.27,45.15-16.22,81.4-31.25,110.31-20,38.52-54.21,54.04-84.77,70.28a193.275,193.275,0,0,1-27.46,11.94c-55.61,19.3-117.85,14.18-166.74,3.99a657.282,657.282,0,0,0-104.09-13.16q-14.97-.675-29.97-.67c-15.42.02-293.07,5.29-360.67-131.57-16.69-33.76-28.13-75-32.24-125.27-11.63-142.12,52.29-235.46,134.74-296.47,155.97-115.41,369.76-110.57,523.43,7.88C941.15,276.621,1036.99,396.031,1017.81,560.461Z"
         transform="translate(-56 -106.019)"
         fill="#3f3d56" /><path
         id="Path_84"
         data-name="Path 84"
         d="M986.56,670.771c-20,38.52-47.21,64.04-77.77,80.28a193.272,193.272,0,0,1-27.46,11.94c-55.61,19.3-117.85,14.18-166.74,3.99a657.3,657.3,0,0,0-104.09-13.16q-14.97-.675-29.97-.67-23.13.03-46.25,1.72c-100.17,7.36-253.82-6.43-321.42-143.29L382,283.981,444.95,445.6l20.09,51.59,55.37-75.98L549,381.981l130.2,149.27,36.8-81.27L970.78,657.9l14.21,11.59Z"
         transform="translate(-56 -106.019)"
         fill="#f2f2f2" /><path
         id="Path_85"
         data-name="Path 85"
         d="M302,282.962l26-57,36,83-31-60Z"
         opacity="0.1" /><path
         id="Path_86"
         data-name="Path 86"
         d="M610.5,753.821q-14.97-.675-29.97-.67L465.04,497.191Z"
         transform="translate(-56 -106.019)"
         opacity="0.1" /><path
         id="Path_87"
         data-name="Path 87"
         d="M464.411,315.191,493,292.962l130,150-132-128Z"
         opacity="0.1" /><path
         id="Path_88"
         data-name="Path 88"
         d="M908.79,751.051a193.265,193.265,0,0,1-27.46,11.94L679.2,531.251Z"
         transform="translate(-56 -106.019)"
         opacity="0.1" /><circle
         id="Ellipse_11"
         data-name="Ellipse 11"
         cx="3"
         cy="3"
         r="3"
         transform="translate(479 98.962)"
         fill="#f2f2f2" /><circle
         id="Ellipse_12"
         data-name="Ellipse 12"
         cx="3"
         cy="3"
         r="3"
         transform="translate(396 201.962)"
         fill="#f2f2f2" /><circle
         id="Ellipse_13"
         data-name="Ellipse 13"
         cx="2"
         cy="2"
         r="2"
         transform="translate(600 220.962)"
         fill="#f2f2f2" /><circle
         id="Ellipse_14"
         data-name="Ellipse 14"
         cx="2"
         cy="2"
         r="2"
         transform="translate(180 265.962)"
         fill="#f2f2f2" /><circle
         id="Ellipse_15"
         data-name="Ellipse 15"
         cx="2"
         cy="2"
         r="2"
         transform="translate(612 96.962)"
         fill="#f2f2f2" /><circle
         id="Ellipse_16"
         data-name="Ellipse 16"
         cx="2"
         cy="2"
         r="2"
         transform="translate(736 192.962)"
         fill="#f2f2f2" /><circle
         id="Ellipse_17"
         data-name="Ellipse 17"
         cx="2"
         cy="2"
         r="2"
         transform="translate(858 344.962)"
         fill="#f2f2f2" /><path
         id="Path_89"
         data-name="Path 89"
         d="M306,121.222h-2.76v-2.76h-1.48v2.76H299V122.7h2.76v2.759h1.48V122.7H306Z"
         fill="#f2f2f2" /><path
         id="Path_90"
         data-name="Path 90"
         d="M848,424.222h-2.76v-2.76h-1.48v2.76H841V425.7h2.76v2.759h1.48V425.7H848Z"
         fill="#f2f2f2" /><path
         id="Path_91"
         data-name="Path 91"
         d="M1144,719.981c0,16.569-243.557,74-544,74s-544-57.431-544-74,243.557,14,544,14S1144,703.413,1144,719.981Z"
         transform="translate(-56 -106.019)"
         fill="#3f3d56" /><path
         id="Path_92"
         data-name="Path 92"
         d="M1144,719.981c0,16.569-243.557,74-544,74s-544-57.431-544-74,243.557,14,544,14S1144,703.413,1144,719.981Z"
         transform="translate(-56 -106.019)"
         opacity="0.1" /><ellipse
         id="Ellipse_18"
         data-name="Ellipse 18"
         cx="544"
         cy="30"
         rx="544"
         ry="30"
         transform="translate(0 583.962)"
         fill="#3f3d56" /><path
         id="Path_93"
         data-name="Path 93"
         d="M624,677.981c0,33.137-14.775,24-33,24s-33,9.137-33-24,33-96,33-96S624,644.844,624,677.981Z"
         transform="translate(-56 -106.019)"
         fill="#ff6584" /><path
         id="Path_94"
         data-name="Path 94"
         d="M606,690.66c0,15.062-6.716,10.909-15,10.909s-15,4.153-15-10.909,15-43.636,15-43.636S606,675.6,606,690.66Z"
         transform="translate(-56 -106.019)"
         opacity="0.1" /><rect
         id="Rectangle_97"
         data-name="Rectangle 97"
         width="92"
         height="18"
         rx="9"
         transform="translate(489 604.962)"
         fill="#2f2e41" /><rect
         id="Rectangle_98"
         data-name="Rectangle 98"
         width="92"
         height="18"
         rx="9"
         transform="translate(489 586.962)"
         fill="#2f2e41" /><path
         id="Path_95"
         data-name="Path 95"
         d="M193,596.547c0,55.343,34.719,100.126,77.626,100.126"
         transform="translate(-56 -106.019)"
         fill="#3f3d56" /><path
         id="Path_96"
         data-name="Path 96"
         d="M270.626,696.673c0-55.965,38.745-101.251,86.626-101.251"
         transform="translate(-56 -106.019)"
         fill="#6c63ff" /><path
         id="Path_97"
         data-name="Path 97"
         d="M221.125,601.564c0,52.57,22.14,95.109,49.5,95.109"
         transform="translate(-56 -106.019)"
         fill="#6c63ff" /><path
         id="Path_98"
         data-name="Path 98"
         d="M270.626,696.673c0-71.511,44.783-129.377,100.126-129.377"
         transform="translate(-56 -106.019)"
         fill="#3f3d56" /><path
         id="Path_99"
         data-name="Path 99"
         d="M254.3,697.379s11.009-.339,14.326-2.7,16.934-5.183,17.757-1.395,16.544,18.844,4.115,18.945-28.879-1.936-32.19-3.953S254.3,697.379,254.3,697.379Z"
         transform="translate(-56 -106.019)"
         fill="#a8a8a8" /><path
         id="Path_100"
         data-name="Path 100"
         d="M290.716,710.909c-12.429.1-28.879-1.936-32.19-3.953-2.522-1.536-3.527-7.048-3.863-9.591l-.368.014s.7,8.879,4.009,10.9,19.761,4.053,32.19,3.953c3.588-.029,4.827-1.305,4.759-3.2C294.755,710.174,293.386,710.887,290.716,710.909Z"
         transform="translate(-56 -106.019)"
         opacity="0.2" /><path
         id="Path_101"
         data-name="Path 101"
         d="M777.429,633.081c0,38.029,23.857,68.8,53.341,68.8"
         transform="translate(-56 -106.019)"
         fill="#3f3d56" /><path
         id="Path_102"
         data-name="Path 102"
         d="M830.769,701.882c0-38.456,26.623-69.575,59.525-69.575"
         transform="translate(-56 -106.019)"
         fill="#6c63ff" /><path
         id="Path_103"
         data-name="Path 103"
         d="M796.755,636.528c0,36.124,15.213,65.354,34.014,65.354"
         transform="translate(-56 -106.019)"
         fill="#6c63ff" /><path
         id="Path_104"
         data-name="Path 104"
         d="M830.769,701.882c0-49.139,30.773-88.9,68.8-88.9"
         transform="translate(-56 -106.019)"
         fill="#3f3d56" /><path
         id="Path_105"
         data-name="Path 105"
         d="M819.548,702.367s7.565-.233,9.844-1.856,11.636-3.562,12.2-.958,11.368,12.949,2.828,13.018-19.844-1.33-22.119-2.716S819.548,702.367,819.548,702.367Z"
         transform="translate(-56 -106.019)"
         fill="#a8a8a8" /><path
         id="Path_106"
         data-name="Path 106"
         d="M844.574,711.664c-8.54.069-19.844-1.33-22.119-2.716-1.733-1.056-2.423-4.843-2.654-6.59l-.253.01s.479,6.1,2.755,7.487,13.579,2.785,22.119,2.716c2.465-.02,3.317-.9,3.27-2.2C847.349,711.159,846.409,711.649,844.574,711.664Z"
         transform="translate(-56 -106.019)"
         opacity="0.2" /><path
         id="Path_107"
         data-name="Path 107"
         d="M949.813,724.718s11.36-1.729,14.5-4.591,16.89-7.488,18.217-3.667,19.494,17.447,6.633,19.107-30.153,1.609-33.835-.065S949.813,724.718,949.813,724.718Z"
         transform="translate(-56 -106.019)"
         fill="#a8a8a8" /><path
         id="Path_108"
         data-name="Path 108"
         d="M989.228,734.173c-12.86,1.659-30.153,1.609-33.835-.065-2.8-1.275-4.535-6.858-5.2-9.45l-.379.061s1.833,9.109,5.516,10.783,20.975,1.725,33.835.065c3.712-.479,4.836-1.956,4.529-3.906C993.319,732.907,991.991,733.817,989.228,734.173Z"
         transform="translate(-56 -106.019)"
         opacity="0.2" /><path
         id="Path_109"
         data-name="Path 109"
         d="M670.26,723.9s9.587-1.459,12.237-3.875,14.255-6.32,15.374-3.095,16.452,14.725,5.6,16.125-25.448,1.358-28.555-.055S670.26,723.9,670.26,723.9Z"
         transform="translate(-56 -106.019)"
         fill="#a8a8a8" /><path
         id="Path_110"
         data-name="Path 110"
         d="M703.524,731.875c-10.853,1.4-25.448,1.358-28.555-.055-2.367-1.076-3.827-5.788-4.39-7.976l-.32.051s1.547,7.687,4.655,9.1,17.7,1.456,28.555.055c3.133-.4,4.081-1.651,3.822-3.3C706.977,730.807,705.856,731.575,703.524,731.875Z"
         transform="translate(-56 -106.019)"
         opacity="0.2" /><path
         id="Path_111"
         data-name="Path 111"
         d="M178.389,719.109s7.463-1.136,9.527-3.016,11.1-4.92,11.969-2.409,12.808,11.463,4.358,12.553-19.811,1.057-22.23-.043S178.389,719.109,178.389,719.109Z"
         transform="translate(-56 -106.019)"
         fill="#a8a8a8" /><path
         id="Path_112"
         data-name="Path 112"
         d="M204.285,725.321c-8.449,1.09-19.811,1.057-22.23-.043-1.842-.838-2.979-4.506-3.417-6.209l-.249.04s1.2,5.984,3.624,7.085,13.781,1.133,22.23.043c2.439-.315,3.177-1.285,2.976-2.566C206.973,724.489,206.1,725.087,204.285,725.321Z"
         transform="translate(-56 -106.019)"
         opacity="0.2" /><path
         id="Path_113"
         data-name="Path 113"
         d="M439.7,707.337c0,30.22-42.124,20.873-93.7,20.873s-93.074,9.347-93.074-20.873,42.118-36.793,93.694-36.793S439.7,677.117,439.7,707.337Z"
         transform="translate(-56 -106.019)"
         opacity="0.1" /><path
         id="Path_114"
         data-name="Path 114"
         d="M439.7,699.9c0,30.22-42.124,20.873-93.7,20.873s-93.074,9.347-93.074-20.873S295.04,663.1,346.616,663.1,439.7,669.676,439.7,699.9Z"
         transform="translate(-56 -106.019)"
         fill="#3f3d56" /></g></g><g
     fill="none"
     fill-rule="evenodd"
     id="g15"
     style="display:inline"
     transform="matrix(2.5648111,0,0,2.5831631,274.23823,104.41634)"><path
       style="display:inline;fill:#e6e6e6;fill-opacity:1;stroke:#000000;stroke-width:0.377953;stroke-linejoin:bevel;stroke-dasharray:none;stroke-dashoffset:0;stroke-opacity:1;paint-order:stroke fill markers"
       d="m 52.552927,119.80074 c 0,0 30.220009,-0.45661 45.703612,-0.49812 15.483601,-0.0415 47.198011,0.24906 47.198011,0.24906 l 12.4533,36.11457 -31.13325,39.6015 L 85.678705,194.02242 49.8132,133.99751 Z"
       id="path70"
       sodipodi:nodetypes="cscccccc"
       inkscape:label="camisa" /><g
       id="g18"
       inkscape:label="head"
       style="display:inline"
       sodipodi:insensitive="true"><path
         style="display:inline;fill:#99eeff;fill-opacity:1;stroke-width:0.961774"
         d="M 70.160315,15.142699 C 71.408106,13.416483 78.904617,9.3753744 84.710087,8.2941253 90.985272,7.1253933 96.134475,7.1455459 99.265091,7.3055892 L 99.009388,39.35218 85.944735,24.489613 c 0,0 -19.028003,-4.859684 -15.78442,-9.346914 z"
         id="path21"
         sodipodi:nodetypes="sscccs"
         inkscape:label="up0" /><path
         style="display:inline;fill:#4de1ff;fill-opacity:1;stroke-width:0.961774"
         d="M 128.32641,15.142699 C 127.07862,13.416483 119.58211,9.3753744 113.77664,8.2941255 107.50145,7.1253929 102.35225,7.145546 99.221632,7.3055893 L 98.792403,39.812957 112.54199,24.489613 c 0,0 19.028,-4.859684 15.78442,-9.346914 z"
         id="path22"
         sodipodi:nodetypes="sscccs"
         inkscape:label="up1" /><path
         d="M 47.980469,4.9863281 C 45.708758,6.417965 44.70986,12.644128 44.381472,16.906812 c -0.499811,6.487864 2.442747,19.829516 2.442747,19.829516 0,0 -3.577234,8.907457 -4.573328,14.241767 -0.996094,5.33431 -1.955866,12.886093 -1.403235,17.764092 0.625773,5.523611 1.544698,10.256491 2.842561,14.450686 1.297862,4.194195 2.974662,7.849705 5.116184,11.218577 2.141523,3.368873 4.747767,6.45111 7.904519,9.49875 3.156752,3.04765 6.909907,5.99989 11.207563,9.29121 3.334728,2.55387 11.663786,5.94514 18.66103,7.45261 6.997244,1.50747 12.662674,1.13114 12.662674,1.13114 L 98.800781,35.927734 c 0,0 -5.844462,-10.469877 -11.623432,-15.586212 C 81.39838,15.225187 68.424514,8.1903527 62.521377,6.6930813 56.61824,5.1958099 50.947926,3.1162307 47.980469,4.9863281 Z"
         style="fill:#e6eef2;fill-opacity:1"
         id="path17"
         sodipodi:nodetypes="ssczsssssscczzs"
         inkscape:label="0" /><path
         d="m 149.61658,5.0042447 c 2.27171,1.43163 3.27061,7.6578003 3.599,11.9204803 0.49981,6.48786 -2.44275,19.829518 -2.44275,19.829518 0,0 3.57724,8.907457 4.57333,14.241767 0.9961,5.33431 1.95587,12.886093 1.40324,17.764092 -0.62578,5.523611 -1.5447,10.256491 -2.84256,14.450686 -1.29787,4.194195 -2.97467,7.849705 -5.11619,11.218577 -2.14152,3.368873 -4.74777,6.451115 -7.90452,9.498755 -3.15675,3.04765 -6.9099,5.99989 -11.20756,9.29121 -3.33473,2.55387 -11.66379,5.94514 -18.66103,7.45261 -6.99724,1.50747 -12.662674,1.13114 -12.662674,1.13114 l 0.441406,-85.857431 c 0,0 5.844458,-10.469874 11.623428,-15.586214 5.77897,-5.11633 18.75284,-12.1511703 24.65598,-13.6484403 5.90313,-1.49727 11.57345,-3.57685 14.5409,-1.70675 z"
         style="fill:#c4d6e0;fill-opacity:1"
         id="path18"
         sodipodi:nodetypes="ssczsssssscczzs"
         inkscape:label="1" /><path
         d="m 73.354825,60.682497 c -0.352177,0 -0.726366,-0.04568 -1.078545,-0.114193 -0.354039,-0.07142 -0.700521,-0.178514 -1.034523,-0.319738 -0.330168,-0.13703 -0.638323,-0.319738 -0.948681,-0.525285 -0.286143,-0.205546 -0.570086,-0.456768 -0.836423,-0.707992 -0.239921,-0.274062 -0.482042,-0.548123 -0.680142,-0.867862 -0.1981,-0.319739 -0.374191,-0.639478 -0.508457,-0.982054 -0.270177,-0.697227 -0.411309,-1.441035 -0.41601,-2.192493 0,-0.365416 0.04403,-0.75367 0.110055,-1.119086 0.06604,-0.365415 0.176089,-0.707993 0.305955,-1.073409 0.134266,-0.342576 0.310357,-0.662315 0.508457,-0.982054 0.1981,-0.296899 0.440221,-0.5938 0.680142,-0.867861 0.266337,-0.251223 0.55028,-0.502446 0.836423,-0.707993 0.310358,-0.205545 0.618513,-0.388254 0.948681,-0.525285 0.327966,-0.137031 0.682344,-0.251223 1.034523,-0.319738 0.704356,-0.159869 1.430723,-0.159869 2.157091,0 0.349976,0.06851 0.704355,0.182707 1.034523,0.319738 0.327966,0.137031 0.638324,0.31974 0.946479,0.525285 0.286145,0.205547 0.570087,0.45677 0.836421,0.707993 0.242124,0.274061 0.484246,0.570962 0.682347,0.867861 0.198098,0.319739 0.374189,0.639478 0.506255,0.982054 0.132068,0.365416 0.242122,0.707994 0.308155,1.073409 0.06384,0.365416 0.110057,0.75367 0.110057,1.119086 0,1.507339 -0.596503,2.99184 -1.606814,4.042409 -0.266334,0.251224 -0.550276,0.502446 -0.836421,0.707992 -0.308155,0.205547 -0.618513,0.388255 -0.946479,0.525285 -0.670989,0.284012 -1.388401,0.431336 -2.113069,0.433931 m 51.859435,-0.438992 c -1.47599,0 -2.90724,-0.58782 -3.96055,-1.58929 -0.24837,-0.261023 -0.47919,-0.537363 -0.69103,-0.827302 -0.20127,-0.304795 -0.3802,-0.60959 -0.5166,-0.936158 -0.27449,-0.664641 -0.41789,-1.373687 -0.42267,-2.090024 0,-1.436894 0.60382,-2.830244 1.6303,-3.853486 0.2706,-0.239482 0.55908,-0.478964 0.8498,-0.674903 0.31532,-0.19594 0.62841,-0.37011 0.96387,-0.500737 0.3332,-0.130625 0.69326,-0.239481 1.05107,-0.304793 0.71564,-0.152399 1.47598,-0.152399 2.19162,0 0.35557,0.06531 0.71562,0.174168 1.05106,0.304793 0.33322,0.130627 0.64854,0.304797 0.96163,0.500737 0.29073,0.195939 0.57921,0.435421 0.84982,0.674903 1.02647,1.023242 1.63251,2.416592 1.63251,3.853486 0,0.348337 -0.047,0.718445 -0.11181,1.066783 -0.0671,0.348338 -0.17892,0.696675 -0.31308,1.023241 -0.15655,0.326568 -0.31309,0.631363 -0.51435,0.936158 -0.20127,0.283025 -0.44728,0.566049 -0.69327,0.827302 -0.27061,0.239483 -0.55909,0.478964 -0.84982,0.674904 -0.31309,0.195939 -0.62841,0.370109 -0.96163,0.500736 -0.68172,0.270738 -1.41061,0.411176 -2.14687,0.41365"
         fill="#000000"
         id="path15"
         style="display:inline;fill:#17444d;fill-opacity:1;stroke-width:2.67535"
         sodipodi:nodetypes="cccccsccscccccccccccccscccccccccccccccccsccccccc"
         inkscape:label="eyes" /><path
         style="display:inline;fill:#ff9933;fill-opacity:1"
         d="m 99.13742,98.360931 c 0,0 2.24549,0.176116 3.39024,-0.792523 1.14476,-0.96864 4.18276,-5.239459 4.18276,-5.239459 0,0 8.51874,-12.806358 11.31547,-19.548905 0.51996,-1.253552 0.61189,-1.530022 0.38078,-2.857464 -0.22036,-1.265645 -1.8882,-2.945943 -2.75835,-3.834954 -3.931,-4.016237 -7.76841,-6.348498 -7.76841,-6.348498 0,0 -4.50374,-2.896256 -6.27304,-3.659453 -1.76931,-0.763197 -2.381392,-0.514995 -2.381392,-0.514995 z"
         id="path20"
         sodipodi:nodetypes="cscsssczcc"
         inkscape:label="pico1" /><path
         style="display:inline;fill:#ffbb33;fill-opacity:1"
         d="m 99.32957,98.360931 c 0,0 -2.245482,0.176116 -3.390238,-0.792523 -1.144756,-0.96864 -4.182761,-5.239459 -4.182761,-5.239459 0,0 -8.518736,-12.806358 -11.31547,-19.548905 -0.51996,-1.253552 -0.611886,-1.530022 -0.380773,-2.857464 0.220354,-1.265645 1.888197,-2.945943 2.758343,-3.834954 3.931009,-4.016237 7.768413,-6.348498 7.768413,-6.348498 0,0 4.503738,-2.896256 6.273042,-3.659453 1.769304,-0.763197 2.381386,-0.514995 2.381386,-0.514995 z"
         id="path19"
         sodipodi:nodetypes="cscsssczcc"
         inkscape:label="pico0" /></g><g
       id="g72"
       inkscape:label="camisa"><path
         style="display:inline;fill:#aa0000;fill-opacity:1;stroke:#000000;stroke-width:0.377953;stroke-linejoin:bevel;stroke-dasharray:none;stroke-dashoffset:0;stroke-opacity:1;paint-order:stroke fill markers"
         d="m 92.372978,144.85562 -4.22679,35.31131 14.469002,16.59521 12.95144,-13.82316 -10.77211,-38.04483 z"
         id="path72" /><path
         style="display:inline;fill:#aa0000;fill-opacity:1;stroke:#000000;stroke-width:0.377953;stroke-linejoin:bevel;stroke-dasharray:none;stroke-dashoffset:0;stroke-opacity:1;paint-order:stroke fill markers"
         d="m 92.372978,145.03174 12.416192,0.0881 6.9566,-10.3028 -0.70447,-9.6864 -24.3921,-0.17611 -1.673105,7.573 z"
         id="path71" /><path
         style="fill:#ffffff;fill-opacity:1;stroke:url(#linearGradient69);stroke-width:0.377953;stroke-linejoin:bevel;stroke-dasharray:none;stroke-dashoffset:0;stroke-opacity:1;paint-order:stroke fill markers"
         d="m 43.3246,114.29945 5.283488,-19.725019 42.620134,26.241319 -8.805813,19.72502 z"
         id="path48" /><path
         style="display:inline;fill:#ffffff;fill-opacity:1;stroke:url(#linearGradient70);stroke-width:0.364124;stroke-linejoin:bevel;stroke-dasharray:none;stroke-dashoffset:0;stroke-opacity:1;paint-order:stroke fill markers"
         d="m 149.86254,118.09146 -3.24398,-19.395886 -43.31614,21.214136 6.62319,19.72148 z"
         id="path48-3" /></g><g
       id="g80"><path
         style="display:inline;fill:#484537;fill-opacity:1;stroke:#000000;stroke-width:0.377953;stroke-linejoin:bevel;stroke-dasharray:none;stroke-dashoffset:0;stroke-opacity:1;paint-order:stroke fill markers"
         d="m 40.50674,118.52624 c 0,0 -12.838777,16.55762 -15.498231,23.7757 -5.193396,14.09551 -8.453581,41.73955 -8.453581,41.73955 l -0.08806,15.4542 123.545562,-0.3082 c 0,0 -37.68888,-31.05517 -53.275172,-47.1111 C 71.150968,136.02046 46.49469,102.8519 46.49469,102.8519 Z"
         id="path74"
         sodipodi:nodetypes="cscccscc" /><path
         style="fill:#484537;fill-opacity:1;stroke:#000000;stroke-width:0.377953;stroke-linejoin:bevel;stroke-dasharray:none;stroke-dashoffset:0;stroke-opacity:1;paint-order:stroke fill markers"
         d="m 46.670809,102.67578 -6.516302,16.29076 0.880581,6.5163 21.6623,-1.32088 z"
         id="path73"
         sodipodi:nodetypes="ccccc" /><path
         style="fill:#484537;fill-opacity:1;stroke:#000000;stroke-width:0.377953;stroke-linejoin:bevel;stroke-dasharray:none;stroke-dashoffset:0;stroke-opacity:1;paint-order:stroke fill markers"
         d="m 38.217228,140.18854 9.510278,36.8083 0.176117,22.01453"
         id="path75" /><path
         style="fill:#484537;fill-opacity:1;stroke:#000000;stroke-width:0.377953;stroke-linejoin:bevel;stroke-dasharray:none;stroke-dashoffset:0;stroke-opacity:1;paint-order:stroke fill markers"
         d="m 55.790785,116.93649 -11.955169,16.18929 84.059774,57.90784"
         id="path76" /></g><g
       id="g83"
       transform="matrix(-1.0000287,0,0,0.97688359,194.76891,4.6142352)"><path
         style="display:inline;fill:#484537;fill-opacity:1;stroke:#000000;stroke-width:0.377953;stroke-linejoin:bevel;stroke-dasharray:none;stroke-dashoffset:0;stroke-opacity:1;paint-order:stroke fill markers"
         d="m 40.50674,118.52624 c 0,0 -12.838777,16.55762 -15.498231,23.7757 -5.193396,14.09551 -8.453581,41.73955 -8.453581,41.73955 l 0.09324,15.34859 104.344252,0.15801 c 0,0 -3.37445,-10.67396 -7.53842,-15.27441 C 104.37043,174.23796 82.498719,153.92346 78.636143,150.09327 62.753913,134.34418 46.49469,102.8519 46.49469,102.8519 Z"
         id="path80"
         sodipodi:nodetypes="cscccsscc" /><path
         style="fill:#484537;fill-opacity:1;stroke:#000000;stroke-width:0.377953;stroke-linejoin:bevel;stroke-dasharray:none;stroke-dashoffset:0;stroke-opacity:1;paint-order:stroke fill markers"
         d="m 46.670809,102.67578 -6.516302,16.29076 0.880581,6.5163 17.611743,1.74394 z"
         id="path81"
         sodipodi:nodetypes="ccccc" /><path
         style="fill:#484537;fill-opacity:1;stroke:#000000;stroke-width:0.377953;stroke-linejoin:bevel;stroke-dasharray:none;stroke-dashoffset:0;stroke-opacity:1;paint-order:stroke fill markers"
         d="m 38.217228,140.18854 9.510278,36.8083 0.176117,22.01453"
         id="path82" /><path
         style="fill:#484537;fill-opacity:1;stroke:#000000;stroke-width:0.382393;stroke-linecap:butt;stroke-linejoin:bevel;stroke-dasharray:none;stroke-dashoffset:0;stroke-opacity:1;paint-order:markers stroke fill"
         d="m 54.578803,117.32869 -10.214456,19.65093 70.568103,49.03719 z"
         id="path83"
         sodipodi:nodetypes="cccc" /></g><g
       id="g89"><path
         style="fill:#e6e6e6;fill-opacity:1;stroke:#000000;stroke-width:0.377953;stroke-linecap:butt;stroke-linejoin:bevel;stroke-dasharray:none;stroke-dashoffset:0;stroke-opacity:1;paint-order:markers stroke fill"
         d="m 42.590286,113.07597 -2.988792,7.47198 54.047323,53.79825 4.98132,-0.24906 55.541723,-54.79452 -2.2416,-5.72852 -53.798255,59.27771 -4.234122,0.24906 z"
         id="path84" /><path
         style="fill:#1a1a1a;fill-opacity:1;stroke:#000000;stroke-width:0.438852;stroke-linecap:butt;stroke-linejoin:bevel;stroke-dasharray:none;stroke-dashoffset:0;stroke-opacity:1;paint-order:markers stroke fill"
         d="m 93.160668,174.33974 -1.987897,2.69262 -6.460668,0.16828 -0.372731,30.96508 26.215408,-0.84143 -1.61517,-30.7968 -7.57887,0.16828 -2.236378,-2.69262 z"
         id="path85" /></g></g><path
     style="fill:#ececec;stroke:#000000;stroke-width:0.443698;stroke-linejoin:bevel;paint-order:markers stroke fill"
     d="m 493.65525,563.35873 -1.53955,76.11467 63.73711,-1.91351 -4.00282,-75.47682 z"
     id="path1" /><g
     id="g4"
     inkscape:label="sena"><path
       style="fill:#008000;fill-opacity:1;stroke:none;stroke-width:0.377953;stroke-linejoin:bevel;paint-order:markers stroke fill"
       d="m 500.55586,586.52798 2.46978,0.13548 2.83333,-8.93589 h -8.77244 l -0.0545,1.74359 7.41025,-0.16346 z"
       id="path2" /><path
       style="fill:#008000;fill-opacity:1;stroke:none;stroke-width:0.377953;stroke-linejoin:bevel;paint-order:markers stroke fill"
       d="m 514.21978,586.47349 -2.46978,0.13548 -2.83333,-8.93589 h 8.77244 l 0.0545,1.74359 -7.41025,-0.16346 z"
       id="path2-5" /><path
       style="fill:#008000;fill-opacity:1;stroke:none;stroke-width:0.377953;stroke-linejoin:bevel;paint-order:markers stroke fill"
       d="m 503.9303,586.61194 3.48681,-7.22405 3.8143,7.32037 -1.61819,0.48157 -2.19612,-5.75998 -1.92641,5.77924 z"
       id="path3"
       sodipodi:nodetypes="ccccccc" /><text
       xml:space="preserve"
       style="font-size:6.22872px;text-align:start;writing-mode:lr-tb;direction:ltr;text-anchor:start;fill:#008000;fill-opacity:1;stroke:none;stroke-width:0.19618;stroke-linejoin:bevel;paint-order:markers stroke fill"
       x="429.6637"
       y="668.41956"
       id="text3"
       transform="scale(1.1582256,0.86338969)"><tspan
         sodipodi:role="line"
         id="tspan3"
         x="429.6637"
         y="668.41956"
         style="stroke-width:0.19618">SENA</tspan></text><ellipse
       style="fill:#008000;fill-opacity:1;stroke:none;stroke-width:0.377953;stroke-linejoin:bevel;paint-order:markers stroke fill"
       id="path4"
       cx="507.34003"
       cy="568.9082"
       rx="3.1593168"
       ry="3.0822604" /></g><path
     style="fill:#008000;fill-opacity:1;stroke:#008000;stroke-width:0.377953;stroke-linejoin:bevel;paint-order:markers stroke fill;stroke-opacity:1"
     d="m 496.26923,593.85577 54.21475,-0.92628"
     id="path5" /><text
     xml:space="preserve"
     style="font-size:4.63948px;text-align:start;writing-mode:lr-tb;direction:ltr;text-anchor:start;fill:#008000;fill-opacity:1;stroke:#008000;stroke-width:0.146125;stroke-linejoin:bevel;stroke-opacity:1;paint-order:markers stroke fill"
     x="406.25656"
     y="734.17004"
     id="text5"
     transform="scale(1.2254841,0.81600405)"><tspan
       sodipodi:role="line"
       id="tspan5"
       x="406.25656"
       y="734.17004"
       style="stroke-width:0.146125">CRONO</tspan><tspan
       sodipodi:role="line"
       x="406.25656"
       y="739.96942"
       style="stroke-width:0.146125"
       id="tspan9">XENTHRALL</tspan></text><text
     xml:space="preserve"
     style="font-size:2.6376px;text-align:start;writing-mode:lr-tb;direction:ltr;text-anchor:start;fill:#008000;fill-opacity:1;stroke:#008000;stroke-width:0.0830742;stroke-linejoin:bevel;stroke-opacity:1;paint-order:markers stroke fill"
     x="446.62158"
     y="693.39832"
     id="text6"
     transform="matrix(1.077418,-0.02692156,0.02317718,0.92756573,0,0)"><tspan
       sodipodi:role="line"
       id="tspan6"
       x="446.62158"
       y="693.39832"
       style="stroke-width:0.0830742">Tg. Análisis y Desarrollo de Software</tspan></text><text
     xml:space="preserve"
     style="font-size:2.71054px;text-align:start;writing-mode:lr-tb;direction:ltr;text-anchor:start;fill:#008000;fill-opacity:1;stroke:#008000;stroke-width:0.0853709;stroke-linejoin:bevel;stroke-opacity:1;paint-order:markers stroke fill"
     x="425.88327"
     y="707.11511"
     id="text7"
     transform="matrix(1.0782741,-0.04560771,0.05444541,0.92510507,0,0)"><tspan
       sodipodi:role="line"
       id="tspan7"
       x="425.88327"
       y="707.11511"
       style="stroke-width:0.0853709">Centro Agroempresarial y Turístico</tspan><tspan
       sodipodi:role="line"
       x="425.88327"
       y="710.5033"
       id="tspan8"
       style="stroke-width:0.0853709">de los Andes</tspan></text><text
     xml:space="preserve"
     style="font-size:2.96995px;text-align:start;writing-mode:lr-tb;direction:ltr;text-anchor:start;fill:#000000;fill-opacity:1;stroke:none;stroke-width:0.0935417;stroke-linejoin:bevel;stroke-opacity:1;paint-order:markers stroke fill"
     x="611.54431"
     y="495.60944"
     id="text10"
     transform="scale(0.81460795,1.2275844)"><tspan
       sodipodi:role="line"
       id="tspan10"
       x="611.54431"
       y="495.60944"
       style="stroke-width:0.0935417">C.C. 1000000000</tspan></text><text
     xml:space="preserve"
     style="font-size:2.96995px;text-align:start;writing-mode:lr-tb;direction:ltr;text-anchor:start;fill:#000000;fill-opacity:1;stroke:none;stroke-width:0.0935417;stroke-linejoin:bevel;stroke-opacity:1;paint-order:markers stroke fill"
     x="611.53156"
     y="499.50021"
     id="text10-2"
     transform="scale(0.81460795,1.2275844)"><tspan
       sodipodi:role="line"
       id="tspan10-9"
       x="611.53156"
       y="499.50021"
       style="stroke-width:0.0935417">RH A+</tspan></text><text
     xml:space="preserve"
     style="font-size:6.12956px;text-align:start;writing-mode:lr-tb;direction:ltr;text-anchor:start;fill:#000000;fill-opacity:1;stroke:none;stroke-width:0.434379;stroke-linejoin:bevel;stroke-opacity:1;paint-order:markers stroke fill"
     x="1124.8497"
     y="276.7912"
     id="text11"
     transform="scale(0.44248029,2.2599877)"><tspan
       sodipodi:role="line"
       id="tspan11"
       x="1124.8497"
       y="276.7912"
       style="font-style:italic;font-variant:normal;font-weight:normal;font-stretch:normal;font-size:6.12956px;font-family:sans-serif;-inkscape-font-specification:'sans-serif Italic';stroke-width:0.434379">ll ll ll l llllll lll ll ll llllll lllll lll lllllllll ll</tspan></text></svg>
