<?xml version="1.0" encoding="UTF-8" standalone="no"?>
<svg
   width="1041.277"
   height="554.141"
   viewBox="0 0 1041.277 554.141"
   version="1.1"
   id="svg1"
   sodipodi:docname="undraw_docusaurus_react.svg"
   xml:space="preserve"
   inkscape:version="1.4.2 (2aeb623e1d, 2025-05-12)"
   xmlns:inkscape="http://www.inkscape.org/namespaces/inkscape"
   xmlns:sodipodi="http://sodipodi.sourceforge.net/DTD/sodipodi-0.dtd"
   xmlns:xlink="http://www.w3.org/1999/xlink"
   xmlns="http://www.w3.org/2000/svg"
   xmlns:svg="http://www.w3.org/2000/svg"><defs
     id="defs1"><linearGradient
       id="linearGradient68"
       inkscape:collect="always"><stop
         style="stop-color:#000000;stop-opacity:1;"
         offset="0.7550329"
         id="stop68" /><stop
         style="stop-color:#000000;stop-opacity:0;"
         offset="1"
         id="stop69" /></linearGradient><inkscape:path-effect
       effect="powerstroke"
       message=""
       id="path-effect27"
       is_visible="true"
       lpeversion="1.3"
       scale_width="1"
       interpolator_type="CentripetalCatmullRom"
       interpolator_beta="0.75"
       start_linecap_type="round"
       end_linecap_type="round"
       offset_points="18.660169,1.867995"
       linejoin_type="spiro"
       miter_limit="4"
       not_jump="true"
       sort_points="true" /><inkscape:path-effect
       effect="simplify"
       id="path-effect26"
       is_visible="true"
       lpeversion="1.3"
       threshold="0.012"
       steps="1"
       smooth_angles="0"
       helper_size="0"
       simplify_individual_paths="false"
       simplify_just_coalesce="false"
       step="1" /><inkscape:path-effect
       effect="powerstroke"
       message=""
       id="path-effect24"
       is_visible="true"
       lpeversion="1.3"
       scale_width="1"
       interpolator_type="CentripetalCatmullRom"
       interpolator_beta="0.75"
       start_linecap_type="round"
       end_linecap_type="round"
       offset_points="11.58846,5.2834878"
       linejoin_type="spiro"
       miter_limit="4"
       not_jump="true"
       sort_points="true" /><inkscape:path-effect
       effect="simplify"
       id="path-effect23"
       is_visible="true"
       lpeversion="1.3"
       threshold="0.012"
       steps="1"
       smooth_angles="0"
       helper_size="0"
       simplify_individual_paths="false"
       simplify_just_coalesce="false"
       step="1" /><linearGradient
       inkscape:collect="always"
       xlink:href="#linearGradient68"
       id="linearGradient69"
       x1="43.142059"
       y1="117.5556"
       x2="91.40078"
       y2="117.5556"
       gradientUnits="userSpaceOnUse" /><linearGradient
       inkscape:collect="always"
       xlink:href="#linearGradient68"
       id="linearGradient70"
       gradientUnits="userSpaceOnUse"
       x1="43.142059"
       y1="117.5556"
       x2="91.40078"
       y2="117.5556"
       gradientTransform="matrix(-0.95936929,-0.09243525,-0.0925138,0.9585547,202.00111,12.533912)" /></defs><sodipodi:namedview
     id="namedview1"
     pagecolor="#ffffff"
     bordercolor="#000000"
     borderopacity="0.25"
     inkscape:showpageshadow="2"
     inkscape:pageopacity="0.0"
     inkscape:pagecheckerboard="0"
     inkscape:deskcolor="#d1d1d1"
     inkscape:zoom="2.3970567"
     inkscape:cx="336.66287"
     inkscape:cy="341.04324"
     inkscape:window-width="1856"
     inkscape:window-height="1011"
     inkscape:window-x="0"
     inkscape:window-y="0"
     inkscape:window-maximized="1"
     inkscape:current-layer="Group_24" /><title
     id="title1">Powered by React</title><g
     id="Group_24"
     data-name="Group 24"
     transform="translate(-440 -263)"><g
       id="Group_23"
       data-name="Group 23"
       transform="translate(439.989 262.965)"><path
         id="Path_299"
         data-name="Path 299"
         d="M1040.82,611.12q-1.74,3.75-3.47,7.4-2.7,5.67-5.33,11.12c-.78,1.61-1.56,3.19-2.32,4.77-8.6,17.57-16.63,33.11-23.45,45.89A73.21,73.21,0,0,1,942.44,719l-151.65,1.65h-1.6l-13,.14-11.12.12-34.1.37h-1.38l-17.36.19h-.53l-107,1.16-95.51,1-11.11.12-69,.75H429l-44.75.48h-.48l-141.5,1.53-42.33.46a87.991,87.991,0,0,1-10.79-.54h0c-1.22-.14-2.44-.3-3.65-.49a87.38,87.38,0,0,1-51.29-27.54C116,678.37,102.75,655,93.85,629.64q-1.93-5.49-3.6-11.12C59.44,514.37,97,380,164.6,290.08q4.25-5.64,8.64-11l.07-.08c20.79-25.52,44.1-46.84,68.93-62,44-26.91,92.75-34.49,140.7-11.9,40.57,19.12,78.45,28.11,115.17,30.55,3.71.24,7.42.42,11.11.53,84.23,2.65,163.17-27.7,255.87-47.29,3.69-.78,7.39-1.55,11.12-2.28,66.13-13.16,139.49-20.1,226.73-5.51a189.089,189.089,0,0,1,26.76,6.4q5.77,1.86,11.12,4c41.64,16.94,64.35,48.24,74,87.46q1.37,5.46,2.37,11.11C1134.3,384.41,1084.19,518.23,1040.82,611.12Z"
         transform="translate(-79.34 -172.91)"
         fill="#f2f2f2" /><path
         id="Path_300"
         data-name="Path 300"
         d="M576.36,618.52a95.21,95.21,0,0,1-1.87,11.12h93.7V618.52Zm-78.25,62.81,11.11-.09V653.77c-3.81-.17-7.52-.34-11.11-.52ZM265.19,618.52v11.12h198.5V618.52ZM1114.87,279h-74V191.51q-5.35-2.17-11.12-4V279H776.21V186.58c-3.73.73-7.43,1.5-11.12,2.28V279H509.22V236.15c-3.69-.11-7.4-.29-11.11-.53V279H242.24V217c-24.83,15.16-48.14,36.48-68.93,62h-.07v.08q-4.4,5.4-8.64,11h8.64V618.52h-83q1.66,5.63,3.6,11.12h79.39v93.62a87,87,0,0,0,12.2,2.79c1.21.19,2.43.35,3.65.49h0a87.991,87.991,0,0,0,10.79.54l42.33-.46v-97H498.11v94.21l11.11-.12V629.64H765.09V721l11.12-.12V629.64H1029.7v4.77c.76-1.58,1.54-3.16,2.32-4.77q2.63-5.45,5.33-11.12,1.73-3.64,3.47-7.4v-321h76.42Q1116.23,284.43,1114.87,279ZM242.24,618.52V290.08H498.11V618.52Zm267,0V290.08H765.09V618.52Zm520.48,0H776.21V290.08H1029.7Z"
         transform="translate(-79.34 -172.91)"
         opacity="0.1" /><path
         id="Path_301"
         data-name="Path 301"
         d="M863.09,533.65v13l-151.92,1.4-1.62.03-57.74.53-1.38.02-17.55.15h-.52l-106.98.99L349.77,551.4h-.15l-44.65.42-.48.01-198.4,1.82v-15l46.65-28,93.6-.78,2-.01.66-.01,2-.03,44.94-.37,2.01-.01.64-.01,2-.01L315,509.3l.38-.01,35.55-.3h.29l277.4-2.34,6.79-.05h.68l5.18-.05,37.65-.31,2-.03,1.85-.02h.96l11.71-.09,2.32-.03,3.11-.02,9.75-.09,15.47-.13,2-.02,3.48-.02h.65l74.71-.64Z"
         fill="#65617d" /><path
         id="Path_302"
         data-name="Path 302"
         d="M863.09,533.65v13l-151.92,1.4-1.62.03-57.74.53-1.38.02-17.55.15h-.52l-106.98.99L349.77,551.4h-.15l-44.65.42-.48.01-198.4,1.82v-15l46.65-28,93.6-.78,2-.01.66-.01,2-.03,44.94-.37,2.01-.01.64-.01,2-.01L315,509.3l.38-.01,35.55-.3h.29l277.4-2.34,6.79-.05h.68l5.18-.05,37.65-.31,2-.03,1.85-.02h.96l11.71-.09,2.32-.03,3.11-.02,9.75-.09,15.47-.13,2-.02,3.48-.02h.65l74.71-.64Z"
         opacity="0.2" /><path
         id="Path_303"
         data-name="Path 303"
         d="M375.44,656.57v24.49a6.13,6.13,0,0,1-3.5,5.54,6,6,0,0,1-2.5.6l-34.9.74a6,6,0,0,1-2.7-.57,6.12,6.12,0,0,1-3.57-5.57V656.57Z"
         transform="translate(-79.34 -172.91)"
         fill="#3f3d56" /><path
         id="Path_304"
         data-name="Path 304"
         d="M375.44,656.57v24.49a6.13,6.13,0,0,1-3.5,5.54,6,6,0,0,1-2.5.6l-34.9.74a6,6,0,0,1-2.7-.57,6.12,6.12,0,0,1-3.57-5.57V656.57Z"
         transform="translate(-79.34 -172.91)"
         opacity="0.1" /><path
         id="Path_305"
         data-name="Path 305"
         d="M377.44,656.57v24.49a6.13,6.13,0,0,1-3.5,5.54,6,6,0,0,1-2.5.6l-34.9.74a6,6,0,0,1-2.7-.57,6.12,6.12,0,0,1-3.57-5.57V656.57Z"
         transform="translate(-79.34 -172.91)"
         fill="#3f3d56" /><rect
         id="Rectangle_137"
         data-name="Rectangle 137"
         width="47.17"
         height="31.5"
         transform="translate(680.92 483.65)"
         fill="#3f3d56" /><rect
         id="Rectangle_138"
         data-name="Rectangle 138"
         width="47.17"
         height="31.5"
         transform="translate(680.92 483.65)"
         opacity="0.1" /><rect
         id="Rectangle_139"
         data-name="Rectangle 139"
         width="47.17"
         height="31.5"
         transform="translate(678.92 483.65)"
         fill="#3f3d56" /><path
         id="Path_306"
         data-name="Path 306"
         d="M298.09,483.65v4.97l-47.17,1.26v-6.23Z"
         opacity="0.1" /><path
         id="Path_307"
         data-name="Path 307"
         d="M460.69,485.27v168.2a4,4,0,0,1-3.85,3.95l-191.65,5.1h-.05a4,4,0,0,1-3.95-3.95V485.27a4,4,0,0,1,3.95-3.95h191.6a4,4,0,0,1,3.95,3.95Z"
         transform="translate(-79.34 -172.91)"
         fill="#65617d" /><path
         id="Path_308"
         data-name="Path 308"
         d="M265.19,481.32v181.2h-.05a4,4,0,0,1-3.95-3.95V485.27a4,4,0,0,1,3.95-3.95Z"
         transform="translate(-79.34 -172.91)"
         opacity="0.1" /><path
         id="Path_309"
         data-name="Path 309"
         d="M194.59,319.15h177.5V467.4l-177.5,4Z"
         fill="#39374d" /><path
         id="Path_310"
         data-name="Path 310"
         d="M726.09,483.65v6.41l-47.17-1.26v-5.15Z"
         opacity="0.1" /><path
         id="Path_311"
         data-name="Path 311"
         d="M867.69,485.27v173.3a4,4,0,0,1-4,3.95h0L672,657.42a4,4,0,0,1-3.85-3.95V485.27a4,4,0,0,1,3.95-3.95H863.7a4,4,0,0,1,3.99,3.95Z"
         transform="translate(-79.34 -172.91)"
         fill="#65617d" /><path
         id="Path_312"
         data-name="Path 312"
         d="M867.69,485.27v173.3a4,4,0,0,1-4,3.95h0V481.32h0a4,4,0,0,1,4,3.95Z"
         transform="translate(-79.34 -172.91)"
         opacity="0.1" /><path
         id="Path_313"
         data-name="Path 313"
         d="M775.59,319.15H598.09V467.4l177.5,4Z"
         fill="#39374d" /><path
         id="Path_314"
         data-name="Path 314"
         d="M663.19,485.27v168.2a4,4,0,0,1-3.85,3.95l-191.65,5.1h0a4,4,0,0,1-4-3.95V485.27a4,4,0,0,1,3.95-3.95h191.6A4,4,0,0,1,663.19,485.27Z"
         transform="translate(-79.34 -172.91)"
         fill="#65617d" /><path
         id="Path_315"
         data-name="Path 315"
         d="M397.09,319.15h177.5V467.4l-177.5,4Z"
         fill="#4267b2" /><path
         id="Path_316"
         data-name="Path 316"
         d="M863.09,533.65v13l-151.92,1.4-1.62.03-57.74.53-1.38.02-17.55.15h-.52l-106.98.99L349.77,551.4h-.15l-44.65.42-.48.01-198.4,1.82v-15l202.51-1.33h.48l40.99-.28h.19l283.08-1.87h.29l.17-.01h.47l4.79-.03h1.46l74.49-.5,4.4-.02.98-.01Z"
         opacity="0.1" /><circle
         id="Ellipse_111"
         data-name="Ellipse 111"
         cx="51.33"
         cy="51.33"
         r="51.33"
         transform="translate(435.93 246.82)"
         fill="#fbbebe" /><path
         id="Path_317"
         data-name="Path 317"
         d="M617.94,550.07s-99.5,12-90,0c3.44-4.34,4.39-17.2,4.2-31.85-.06-4.45-.22-9.06-.45-13.65-1.1-22-3.75-43.5-3.75-43.5s87-41,77-8.5c-4,13.13-2.69,31.57.35,48.88.89,5.05,1.92,10,3,14.7a344.66,344.66,0,0,0,9.65,33.92Z"
         transform="translate(-79.34 -172.91)"
         fill="#fbbebe" /><path
         id="Path_318"
         data-name="Path 318"
         d="M585.47,546c11.51-2.13,23.7-6,34.53-1.54,2.85,1.17,5.47,2.88,8.39,3.86s6.12,1.22,9.16,1.91c10.68,2.42,19.34,10.55,24.9,20s8.44,20.14,11.26,30.72l6.9,25.83c6,22.45,12,45.09,13.39,68.3a2437.506,2437.506,0,0,1-250.84,1.43c5.44-10.34,11-21.31,10.54-33s-7.19-23.22-4.76-34.74c1.55-7.34,6.57-13.39,9.64-20.22,8.75-19.52,1.94-45.79,17.32-60.65,6.92-6.68,17-9.21,26.63-8.89,12.28.41,24.85,4.24,37,6.11C555.09,547.48,569.79,548.88,585.47,546Z"
         transform="translate(-79.34 -172.91)"
         fill="#ff6584" /><path
         id="Path_319"
         data-name="Path 319"
         d="M716.37,657.17l-.1,1.43v.1l-.17,2.3-1.33,18.51-1.61,22.3-.46,6.28-1,13.44v.17l-107,1-175.59,1.9v.84h-.14v-1.12l.45-14.36.86-28.06.74-23.79.07-2.37a10.53,10.53,0,0,1,11.42-10.17c4.72.4,10.85.89,18.18,1.41l3,.22c42.33,2.94,120.56,6.74,199.5,2,1.66-.09,3.33-.19,5-.31,12.24-.77,24.47-1.76,36.58-3a10.53,10.53,0,0,1,11.6,11.23Z"
         transform="translate(-79.34 -172.91)"
         opacity="0.1" /><path
         id="Path_320"
         data-name="Path 320"
         d="M429.08,725.44v-.84l175.62-1.91,107-1h.3v-.17l1-13.44.43-6,1.64-22.61,1.29-17.9v-.44a10.617,10.617,0,0,0-.11-2.47.3.3,0,0,0,0-.1,10.391,10.391,0,0,0-2-4.64,10.54,10.54,0,0,0-9.42-4c-12.11,1.24-24.34,2.23-36.58,3-1.67.12-3.34.22-5,.31-78.94,4.69-157.17.89-199.5-2l-3-.22c-7.33-.52-13.46-1-18.18-1.41a10.54,10.54,0,0,0-11.24,8.53,11,11,0,0,0-.18,1.64l-.68,22.16L429.54,710l-.44,14.36v1.12Z"
         transform="translate(-79.34 -172.91)"
         fill="#3f3d56" /><path
         id="Path_321"
         data-name="Path 321"
         d="M716.67,664.18l-1.23,15.33-1.83,22.85-.46,5.72-1,12.81-.06.64v.17h0l-.15,1.48.11-1.48h-.29l-107,1-175.65,1.9v-.28l.49-14.36,1-28.06.64-18.65A6.36,6.36,0,0,1,434.3,658a6.25,6.25,0,0,1,3.78-.9c2.1.17,4.68.37,7.69.59,4.89.36,10.92.78,17.94,1.22,13,.82,29.31,1.7,48,2.42,52,2,122.2,2.67,188.88-3.17,3-.26,6.1-.55,9.13-.84a6.26,6.26,0,0,1,3.48.66,5.159,5.159,0,0,1,.86.54,6.14,6.14,0,0,1,2,2.46,3.564,3.564,0,0,1,.25.61A6.279,6.279,0,0,1,716.67,664.18Z"
         transform="translate(-79.34 -172.91)"
         opacity="0.1" /><path
         id="Path_322"
         data-name="Path 322"
         d="M377.44,677.87v3.19a6.13,6.13,0,0,1-3.5,5.54l-40.1.77a6.12,6.12,0,0,1-3.57-5.57v-3Z"
         transform="translate(-79.34 -172.91)"
         opacity="0.1" /><path
         id="Path_323"
         data-name="Path 323"
         d="M298.59,515.57l-52.25,1V507.9l52.25-1Z"
         fill="#3f3d56" /><path
         id="Path_324"
         data-name="Path 324"
         d="M298.59,515.57l-52.25,1V507.9l52.25-1Z"
         opacity="0.1" /><path
         id="Path_325"
         data-name="Path 325"
         d="M300.59,515.57l-52.25,1V507.9l52.25-1Z"
         fill="#3f3d56" /><path
         id="Path_326"
         data-name="Path 326"
         d="M758.56,679.87v3.19a6.13,6.13,0,0,0,3.5,5.54l40.1.77a6.12,6.12,0,0,0,3.57-5.57v-3Z"
         transform="translate(-79.34 -172.91)"
         opacity="0.1" /><path
         id="Path_327"
         data-name="Path 327"
         d="M678.72,517.57l52.25,1V509.9l-52.25-1Z"
         opacity="0.1" /><path
         id="Path_328"
         data-name="Path 328"
         d="M676.72,517.57l52.25,1V509.9l-52.25-1Z"
         fill="#3f3d56" /><path
         id="Path_329"
         data-name="Path 329"
         d="M534.13,486.79c.08,7-3.16,13.6-5.91,20.07a163.491,163.491,0,0,0-12.66,74.71c.73,11,2.58,22,.73,32.9s-8.43,21.77-19,24.9c17.53,10.45,41.26,9.35,57.76-2.66,8.79-6.4,15.34-15.33,21.75-24.11a97.86,97.86,0,0,1-13.31,44.75A103.43,103.43,0,0,0,637,616.53c4.31-5.81,8.06-12.19,9.72-19.23,3.09-13-1.22-26.51-4.51-39.5a266.055,266.055,0,0,1-6.17-33c-.43-3.56-.78-7.22.1-10.7,1-4.07,3.67-7.51,5.64-11.22,5.6-10.54,5.73-23.3,2.86-34.88s-8.49-22.26-14.06-32.81c-4.46-8.46-9.3-17.31-17.46-22.28-5.1-3.1-11-4.39-16.88-5.64l-25.37-5.43c-5.55-1.19-11.26-2.38-16.87-1.51-9.47,1.48-16.14,8.32-22,15.34-4.59,5.46-15.81,15.71-16.6,22.86-.72,6.59,5.1,17.63,6.09,24.58,1.3,9,2.22,6,7.3,11.52C532,478.05,534.07,482,534.13,486.79Z"
         transform="translate(-79.34 -172.91)"
         fill="#3f3d56" /></g><g
       fill="none"
       fill-rule="evenodd"
       id="g15"
       style="display:inline"
       transform="matrix(0.56465954,0,0,0.56465954,672.39768,592.94455)"><path
         style="display:inline;fill:#e6e6e6;fill-opacity:1;stroke:#000000;stroke-width:0.377953;stroke-linejoin:bevel;stroke-dasharray:none;stroke-dashoffset:0;stroke-opacity:1;paint-order:stroke fill markers"
         d="m 52.552927,119.80074 c 0,0 30.220009,-0.45661 45.703612,-0.49812 15.483601,-0.0415 47.198011,0.24906 47.198011,0.24906 l 12.4533,36.11457 -31.13325,39.6015 L 85.678705,194.02242 49.8132,133.99751 Z"
         id="path70"
         sodipodi:nodetypes="cscccccc"
         inkscape:label="camisa" /><g
         id="g18"
         inkscape:label="head"
         style="display:inline"
         sodipodi:insensitive="true"><path
           style="display:inline;fill:#99eeff;fill-opacity:1;stroke-width:0.961774"
           d="M 70.160315,15.142699 C 71.408106,13.416483 78.904617,9.3753744 84.710087,8.2941253 90.985272,7.1253933 96.134475,7.1455459 99.265091,7.3055892 L 99.009388,39.35218 85.944735,24.489613 c 0,0 -19.028003,-4.859684 -15.78442,-9.346914 z"
           id="path21"
           sodipodi:nodetypes="sscccs"
           inkscape:label="up0" /><path
           style="display:inline;fill:#4de1ff;fill-opacity:1;stroke-width:0.961774"
           d="M 128.32641,15.142699 C 127.07862,13.416483 119.58211,9.3753744 113.77664,8.2941255 107.50145,7.1253929 102.35225,7.145546 99.221632,7.3055893 L 98.792403,39.812957 112.54199,24.489613 c 0,0 19.028,-4.859684 15.78442,-9.346914 z"
           id="path22"
           sodipodi:nodetypes="sscccs"
           inkscape:label="up1" /><path
           d="M 47.980469,4.9863281 C 45.708758,6.417965 44.70986,12.644128 44.381472,16.906812 c -0.499811,6.487864 2.442747,19.829516 2.442747,19.829516 0,0 -3.577234,8.907457 -4.573328,14.241767 -0.996094,5.33431 -1.955866,12.886093 -1.403235,17.764092 0.625773,5.523611 1.544698,10.256491 2.842561,14.450686 1.297862,4.194195 2.974662,7.849705 5.116184,11.218577 2.141523,3.368873 4.747767,6.45111 7.904519,9.49875 3.156752,3.04765 6.909907,5.99989 11.207563,9.29121 3.334728,2.55387 11.663786,5.94514 18.66103,7.45261 6.997244,1.50747 12.662674,1.13114 12.662674,1.13114 L 98.800781,35.927734 c 0,0 -5.844462,-10.469877 -11.623432,-15.586212 C 81.39838,15.225187 68.424514,8.1903527 62.521377,6.6930813 56.61824,5.1958099 50.947926,3.1162307 47.980469,4.9863281 Z"
           style="fill:#e6eef2;fill-opacity:1"
           id="path17"
           sodipodi:nodetypes="ssczsssssscczzs"
           inkscape:label="0" /><path
           d="m 149.61658,5.0042447 c 2.27171,1.43163 3.27061,7.6578003 3.599,11.9204803 0.49981,6.48786 -2.44275,19.829518 -2.44275,19.829518 0,0 3.57724,8.907457 4.57333,14.241767 0.9961,5.33431 1.95587,12.886093 1.40324,17.764092 -0.62578,5.523611 -1.5447,10.256491 -2.84256,14.450686 -1.29787,4.194195 -2.97467,7.849705 -5.11619,11.218577 -2.14152,3.368873 -4.74777,6.451115 -7.90452,9.498755 -3.15675,3.04765 -6.9099,5.99989 -11.20756,9.29121 -3.33473,2.55387 -11.66379,5.94514 -18.66103,7.45261 -6.99724,1.50747 -12.662674,1.13114 -12.662674,1.13114 l 0.441406,-85.857431 c 0,0 5.844458,-10.469874 11.623428,-15.586214 5.77897,-5.11633 18.75284,-12.1511703 24.65598,-13.6484403 5.90313,-1.49727 11.57345,-3.57685 14.5409,-1.70675 z"
           style="fill:#c4d6e0;fill-opacity:1"
           id="path18"
           sodipodi:nodetypes="ssczsssssscczzs"
           inkscape:label="1" /><path
           d="m 73.354825,60.682497 c -0.352177,0 -0.726366,-0.04568 -1.078545,-0.114193 -0.354039,-0.07142 -0.700521,-0.178514 -1.034523,-0.319738 -0.330168,-0.13703 -0.638323,-0.319738 -0.948681,-0.525285 -0.286143,-0.205546 -0.570086,-0.456768 -0.836423,-0.707992 -0.239921,-0.274062 -0.482042,-0.548123 -0.680142,-0.867862 -0.1981,-0.319739 -0.374191,-0.639478 -0.508457,-0.982054 -0.270177,-0.697227 -0.411309,-1.441035 -0.41601,-2.192493 0,-0.365416 0.04403,-0.75367 0.110055,-1.119086 0.06604,-0.365415 0.176089,-0.707993 0.305955,-1.073409 0.134266,-0.342576 0.310357,-0.662315 0.508457,-0.982054 0.1981,-0.296899 0.440221,-0.5938 0.680142,-0.867861 0.266337,-0.251223 0.55028,-0.502446 0.836423,-0.707993 0.310358,-0.205545 0.618513,-0.388254 0.948681,-0.525285 0.327966,-0.137031 0.682344,-0.251223 1.034523,-0.319738 0.704356,-0.159869 1.430723,-0.159869 2.157091,0 0.349976,0.06851 0.704355,0.182707 1.034523,0.319738 0.327966,0.137031 0.638324,0.31974 0.946479,0.525285 0.286145,0.205547 0.570087,0.45677 0.836421,0.707993 0.242124,0.274061 0.484246,0.570962 0.682347,0.867861 0.198098,0.319739 0.374189,0.639478 0.506255,0.982054 0.132068,0.365416 0.242122,0.707994 0.308155,1.073409 0.06384,0.365416 0.110057,0.75367 0.110057,1.119086 0,1.507339 -0.596503,2.99184 -1.606814,4.042409 -0.266334,0.251224 -0.550276,0.502446 -0.836421,0.707992 -0.308155,0.205547 -0.618513,0.388255 -0.946479,0.525285 -0.670989,0.284012 -1.388401,0.431336 -2.113069,0.433931 m 51.859435,-0.438992 c -1.47599,0 -2.90724,-0.58782 -3.96055,-1.58929 -0.24837,-0.261023 -0.47919,-0.537363 -0.69103,-0.827302 -0.20127,-0.304795 -0.3802,-0.60959 -0.5166,-0.936158 -0.27449,-0.664641 -0.41789,-1.373687 -0.42267,-2.090024 0,-1.436894 0.60382,-2.830244 1.6303,-3.853486 0.2706,-0.239482 0.55908,-0.478964 0.8498,-0.674903 0.31532,-0.19594 0.62841,-0.37011 0.96387,-0.500737 0.3332,-0.130625 0.69326,-0.239481 1.05107,-0.304793 0.71564,-0.152399 1.47598,-0.152399 2.19162,0 0.35557,0.06531 0.71562,0.174168 1.05106,0.304793 0.33322,0.130627 0.64854,0.304797 0.96163,0.500737 0.29073,0.195939 0.57921,0.435421 0.84982,0.674903 1.02647,1.023242 1.63251,2.416592 1.63251,3.853486 0,0.348337 -0.047,0.718445 -0.11181,1.066783 -0.0671,0.348338 -0.17892,0.696675 -0.31308,1.023241 -0.15655,0.326568 -0.31309,0.631363 -0.51435,0.936158 -0.20127,0.283025 -0.44728,0.566049 -0.69327,0.827302 -0.27061,0.239483 -0.55909,0.478964 -0.84982,0.674904 -0.31309,0.195939 -0.62841,0.370109 -0.96163,0.500736 -0.68172,0.270738 -1.41061,0.411176 -2.14687,0.41365"
           fill="#000000"
           id="path15"
           style="display:inline;fill:#17444d;fill-opacity:1;stroke-width:2.67535"
           sodipodi:nodetypes="cccccsccscccccccccccccscccccccccccccccccsccccccc"
           inkscape:label="eyes" /><path
           style="display:inline;fill:#ff9933;fill-opacity:1"
           d="m 99.13742,98.360931 c 0,0 2.24549,0.176116 3.39024,-0.792523 1.14476,-0.96864 4.18276,-5.239459 4.18276,-5.239459 0,0 8.51874,-12.806358 11.31547,-19.548905 0.51996,-1.253552 0.61189,-1.530022 0.38078,-2.857464 -0.22036,-1.265645 -1.8882,-2.945943 -2.75835,-3.834954 -3.931,-4.016237 -7.76841,-6.348498 -7.76841,-6.348498 0,0 -4.50374,-2.896256 -6.27304,-3.659453 -1.76931,-0.763197 -2.381392,-0.514995 -2.381392,-0.514995 z"
           id="path20"
           sodipodi:nodetypes="cscsssczcc"
           inkscape:label="pico1" /><path
           style="display:inline;fill:#ffbb33;fill-opacity:1"
           d="m 99.32957,98.360931 c 0,0 -2.245482,0.176116 -3.390238,-0.792523 -1.144756,-0.96864 -4.182761,-5.239459 -4.182761,-5.239459 0,0 -8.518736,-12.806358 -11.31547,-19.548905 -0.51996,-1.253552 -0.611886,-1.530022 -0.380773,-2.857464 0.220354,-1.265645 1.888197,-2.945943 2.758343,-3.834954 3.931009,-4.016237 7.768413,-6.348498 7.768413,-6.348498 0,0 4.503738,-2.896256 6.273042,-3.659453 1.769304,-0.763197 2.381386,-0.514995 2.381386,-0.514995 z"
           id="path19"
           sodipodi:nodetypes="cscsssczcc"
           inkscape:label="pico0" /></g><g
         id="g72"
         inkscape:label="camisa"><path
           style="display:inline;fill:#aa0000;fill-opacity:1;stroke:#000000;stroke-width:0.377953;stroke-linejoin:bevel;stroke-dasharray:none;stroke-dashoffset:0;stroke-opacity:1;paint-order:stroke fill markers"
           d="m 92.372978,144.85562 -4.22679,35.31131 14.469002,16.59521 12.95144,-13.82316 -10.77211,-38.04483 z"
           id="path72" /><path
           style="display:inline;fill:#aa0000;fill-opacity:1;stroke:#000000;stroke-width:0.377953;stroke-linejoin:bevel;stroke-dasharray:none;stroke-dashoffset:0;stroke-opacity:1;paint-order:stroke fill markers"
           d="m 92.372978,145.03174 12.416192,0.0881 6.9566,-10.3028 -0.70447,-9.6864 -24.3921,-0.17611 -1.673105,7.573 z"
           id="path71" /><path
           style="fill:#ffffff;fill-opacity:1;stroke:url(#linearGradient69);stroke-width:0.377953;stroke-linejoin:bevel;stroke-dasharray:none;stroke-dashoffset:0;stroke-opacity:1;paint-order:stroke fill markers"
           d="m 43.3246,114.29945 5.283488,-19.725019 42.620134,26.241319 -8.805813,19.72502 z"
           id="path48" /><path
           style="display:inline;fill:#ffffff;fill-opacity:1;stroke:url(#linearGradient70);stroke-width:0.364124;stroke-linejoin:bevel;stroke-dasharray:none;stroke-dashoffset:0;stroke-opacity:1;paint-order:stroke fill markers"
           d="m 149.86254,118.09146 -3.24398,-19.395886 -43.31614,21.214136 6.62319,19.72148 z"
           id="path48-3" /></g><g
         id="g80"><path
           style="display:inline;fill:#484537;fill-opacity:1;stroke:#000000;stroke-width:0.377953;stroke-linejoin:bevel;stroke-dasharray:none;stroke-dashoffset:0;stroke-opacity:1;paint-order:stroke fill markers"
           d="m 40.50674,118.52624 c 0,0 -12.838777,16.55762 -15.498231,23.7757 -5.193396,14.09551 -8.453581,41.73955 -8.453581,41.73955 l -0.08806,15.4542 123.545562,-0.3082 c 0,0 -37.68888,-31.05517 -53.275172,-47.1111 C 71.150968,136.02046 46.49469,102.8519 46.49469,102.8519 Z"
           id="path74"
           sodipodi:nodetypes="cscccscc" /><path
           style="fill:#484537;fill-opacity:1;stroke:#000000;stroke-width:0.377953;stroke-linejoin:bevel;stroke-dasharray:none;stroke-dashoffset:0;stroke-opacity:1;paint-order:stroke fill markers"
           d="m 46.670809,102.67578 -6.516302,16.29076 0.880581,6.5163 21.6623,-1.32088 z"
           id="path73"
           sodipodi:nodetypes="ccccc" /><path
           style="fill:#484537;fill-opacity:1;stroke:#000000;stroke-width:0.377953;stroke-linejoin:bevel;stroke-dasharray:none;stroke-dashoffset:0;stroke-opacity:1;paint-order:stroke fill markers"
           d="m 38.217228,140.18854 9.510278,36.8083 0.176117,22.01453"
           id="path75" /><path
           style="fill:#484537;fill-opacity:1;stroke:#000000;stroke-width:0.377953;stroke-linejoin:bevel;stroke-dasharray:none;stroke-dashoffset:0;stroke-opacity:1;paint-order:stroke fill markers"
           d="m 55.790785,116.93649 -11.955169,16.18929 84.059774,57.90784"
           id="path76" /></g><g
         id="g83"
         transform="matrix(-1.0000287,0,0,0.97688359,194.76891,4.6142352)"><path
           style="display:inline;fill:#484537;fill-opacity:1;stroke:#000000;stroke-width:0.377953;stroke-linejoin:bevel;stroke-dasharray:none;stroke-dashoffset:0;stroke-opacity:1;paint-order:stroke fill markers"
           d="m 40.50674,118.52624 c 0,0 -12.838777,16.55762 -15.498231,23.7757 -5.193396,14.09551 -8.453581,41.73955 -8.453581,41.73955 l 0.09324,15.34859 104.344252,0.15801 c 0,0 -3.37445,-10.67396 -7.53842,-15.27441 C 104.37043,174.23796 82.498719,153.92346 78.636143,150.09327 62.753913,134.34418 46.49469,102.8519 46.49469,102.8519 Z"
           id="path80"
           sodipodi:nodetypes="cscccsscc" /><path
           style="fill:#484537;fill-opacity:1;stroke:#000000;stroke-width:0.377953;stroke-linejoin:bevel;stroke-dasharray:none;stroke-dashoffset:0;stroke-opacity:1;paint-order:stroke fill markers"
           d="m 46.670809,102.67578 -6.516302,16.29076 0.880581,6.5163 17.611743,1.74394 z"
           id="path81"
           sodipodi:nodetypes="ccccc" /><path
           style="fill:#484537;fill-opacity:1;stroke:#000000;stroke-width:0.377953;stroke-linejoin:bevel;stroke-dasharray:none;stroke-dashoffset:0;stroke-opacity:1;paint-order:stroke fill markers"
           d="m 38.217228,140.18854 9.510278,36.8083 0.176117,22.01453"
           id="path82" /><path
           style="fill:#484537;fill-opacity:1;stroke:#000000;stroke-width:0.382393;stroke-linecap:butt;stroke-linejoin:bevel;stroke-dasharray:none;stroke-dashoffset:0;stroke-opacity:1;paint-order:markers stroke fill"
           d="m 54.578803,117.32869 -10.214456,19.65093 70.568103,49.03719 z"
           id="path83"
           sodipodi:nodetypes="cccc" /></g><g
         id="g89"><path
           style="fill:#e6e6e6;fill-opacity:1;stroke:#000000;stroke-width:0.377953;stroke-linecap:butt;stroke-linejoin:bevel;stroke-dasharray:none;stroke-dashoffset:0;stroke-opacity:1;paint-order:markers stroke fill"
           d="m 42.590286,113.07597 -2.988792,7.47198 54.047323,53.79825 4.98132,-0.24906 55.541723,-54.79452 -2.2416,-5.72852 -53.798255,59.27771 -4.234122,0.24906 z"
           id="path84" /><path
           style="fill:#1a1a1a;fill-opacity:1;stroke:#000000;stroke-width:0.377953;stroke-linecap:butt;stroke-linejoin:bevel;stroke-dasharray:none;stroke-dashoffset:0;stroke-opacity:1;paint-order:markers stroke fill"
           d="m 93.150685,174.22167 -1.992528,1.99253 -6.475716,0.12453 -0.373599,22.91407 26.276468,-0.62266 -1.61893,-22.78954 -7.59652,0.12453 -2.241591,-1.99253 z"
           id="path85" /></g></g></g></svg>
