<svg xmlns="http://www.w3.org/2000/svg" xmlns:xlink="http://www.w3.org/1999/xlink" xml:space="preserve" width="200" height="200"><defs><linearGradient id="a"><stop offset=".755" style="stop-color:#000;stop-opacity:1"/><stop offset="1" style="stop-color:#000;stop-opacity:0"/></linearGradient><linearGradient xlink:href="#a" id="b" x1="43.142" x2="91.401" y1="117.556" y2="117.556" gradientUnits="userSpaceOnUse"/><linearGradient xlink:href="#a" id="c" x1="43.142" x2="91.401" y1="117.556" y2="117.556" gradientTransform="matrix(-.95937 -.09244 -.09251 .95855 202.001 12.534)" gradientUnits="userSpaceOnUse"/></defs><g fill="none" fill-rule="evenodd" style="display:inline"><path d="M52.553 119.8s30.22-.456 45.704-.497c15.483-.042 47.198.249 47.198.249l12.453 36.114-31.133 39.602-41.096-1.246-35.866-60.024Z" style="display:inline;fill:#e6e6e6;fill-opacity:1;stroke:#000;stroke-width:.377953;stroke-linejoin:bevel;stroke-dasharray:none;stroke-dashoffset:0;stroke-opacity:1;paint-order:stroke fill markers"/><g style="display:inline"><path d="M70.16 15.143c1.248-1.727 8.745-5.768 14.55-6.849a62.2 62.2 0 0 1 14.555-.988l-.256 32.046L85.945 24.49s-19.028-4.86-15.785-9.347" style="display:inline;fill:#9ef;fill-opacity:1;stroke-width:.961774"/><path d="M128.326 15.143c-1.247-1.727-8.744-5.768-14.55-6.849a62.2 62.2 0 0 0-14.554-.988l-.43 32.507 13.75-15.323s19.028-4.86 15.784-9.347" style="display:inline;fill:#4de1ff;fill-opacity:1;stroke-width:.961774"/><path d="M47.98 4.986c-2.271 1.432-3.27 7.658-3.599 11.92-.5 6.489 2.443 19.83 2.443 19.83s-3.577 8.908-4.573 14.242-1.956 12.886-1.403 17.764c.625 5.524 1.544 10.257 2.842 14.45 1.298 4.195 2.975 7.85 5.116 11.22 2.142 3.368 4.748 6.45 7.905 9.498s6.91 6 11.207 9.291c3.335 2.554 11.664 5.946 18.662 7.453s12.662 1.131 12.662 1.131l-.441-85.857s-5.845-10.47-11.624-15.586C81.398 15.225 68.425 8.19 62.521 6.693c-5.903-1.497-11.573-3.577-14.54-1.707" style="fill:#e6eef2;fill-opacity:1"/><path d="M149.617 5.004c2.271 1.432 3.27 7.658 3.599 11.92.5 6.489-2.443 19.83-2.443 19.83s3.577 8.908 4.573 14.242 1.956 12.886 1.403 17.764c-.625 5.524-1.544 10.257-2.842 14.45-1.298 4.195-2.975 7.85-5.116 11.22-2.142 3.368-4.748 6.45-7.905 9.498s-6.91 6-11.207 9.291c-3.335 2.554-11.664 5.945-18.661 7.453-6.998 1.507-12.663 1.131-12.663 1.131l.441-85.857s5.845-10.47 11.624-15.587 18.753-12.15 24.656-13.648 11.573-3.577 14.54-1.707" style="fill:#c4d6e0;fill-opacity:1"/><path fill="#000" d="M73.355 60.682c-.352 0-.727-.045-1.079-.114a5.4 5.4 0 0 1-1.034-.32 5.7 5.7 0 0 1-.949-.525 8 8 0 0 1-.836-.708c-.24-.274-.482-.548-.68-.868a6 6 0 0 1-.509-.982 6.2 6.2 0 0 1-.416-2.192c0-.366.044-.754.11-1.12.066-.365.176-.707.306-1.073a6 6 0 0 1 .509-.982 9 9 0 0 1 .68-.868c.266-.25.55-.502.836-.708a5.7 5.7 0 0 1 .949-.525 5.4 5.4 0 0 1 1.034-.32 4.9 4.9 0 0 1 2.157 0c.35.069.705.183 1.035.32.328.137.638.32.946.525.287.206.57.457.837.708.242.275.484.571.682.868.198.32.374.64.506.982.132.366.243.708.309 1.074.063.365.11.753.11 1.119 0 1.507-.597 2.992-1.607 4.042-.267.252-.55.503-.837.708a5.6 5.6 0 0 1-.946.526 5.5 5.5 0 0 1-2.113.433m51.86-.438a5.8 5.8 0 0 1-3.961-1.59 8 8 0 0 1-.691-.827 5.7 5.7 0 0 1-.517-.936 5.6 5.6 0 0 1-.423-2.09c0-1.437.604-2.83 1.63-3.854.271-.24.56-.479.85-.675a6 6 0 0 1 .964-.5 5.8 5.8 0 0 1 1.051-.305 5.3 5.3 0 0 1 2.192 0c.356.065.716.174 1.051.305.333.13.649.304.962.5.29.196.579.436.85.675 1.026 1.023 1.632 2.417 1.632 3.854 0 .348-.047.718-.112 1.067a5.4 5.4 0 0 1-.313 1.023 8 8 0 0 1-.514.936 8 8 0 0 1-.693.827c-.271.24-.56.48-.85.675a6 6 0 0 1-.962.5c-.682.272-1.41.412-2.147.415" style="display:inline;fill:#17444d;fill-opacity:1;stroke-width:2.67535"/><path d="M99.137 98.36s2.246.177 3.39-.792c1.145-.968 4.183-5.24 4.183-5.24s8.52-12.805 11.316-19.548c.52-1.254.612-1.53.38-2.857-.22-1.266-1.888-2.946-2.758-3.835-3.93-4.017-7.768-6.349-7.768-6.349s-4.504-2.896-6.273-3.66c-1.77-.763-2.382-.514-2.382-.514z" style="display:inline;fill:#f93;fill-opacity:1"/><path d="M99.33 98.36s-2.246.177-3.39-.792c-1.145-.968-4.183-5.24-4.183-5.24S83.237 79.524 80.44 72.78c-.52-1.254-.612-1.53-.38-2.857.22-1.266 1.888-2.946 2.758-3.835 3.93-4.017 7.768-6.349 7.768-6.349s4.504-2.896 6.273-3.66c1.77-.763 2.382-.514 2.382-.514z" style="display:inline;fill:#fb3;fill-opacity:1"/></g><path d="m92.373 144.856-4.227 35.31 14.47 16.596 12.95-13.823-10.771-38.045z" style="display:inline;fill:#a00;fill-opacity:1;stroke:#000;stroke-width:.377953;stroke-linejoin:bevel;stroke-dasharray:none;stroke-dashoffset:0;stroke-opacity:1;paint-order:stroke fill markers"/><path d="m92.373 145.032 12.416.088 6.957-10.303-.705-9.686-24.392-.176-1.673 7.573z" style="display:inline;fill:#a00;fill-opacity:1;stroke:#000;stroke-width:.377953;stroke-linejoin:bevel;stroke-dasharray:none;stroke-dashoffset:0;stroke-opacity:1;paint-order:stroke fill markers"/><path d="m43.325 114.3 5.283-19.726 42.62 26.242-8.806 19.725z" style="fill:#fff;fill-opacity:1;stroke:url(#b);stroke-width:.377953;stroke-linejoin:bevel;stroke-dasharray:none;stroke-dashoffset:0;stroke-opacity:1;paint-order:stroke fill markers"/><path d="m149.863 118.091-3.244-19.395-43.317 21.214 6.624 19.721z" style="display:inline;fill:#fff;fill-opacity:1;stroke:url(#c);stroke-width:.364124;stroke-linejoin:bevel;stroke-dasharray:none;stroke-dashoffset:0;stroke-opacity:1;paint-order:stroke fill markers"/><path d="M40.507 118.526s-12.839 16.558-15.498 23.776c-5.194 14.095-8.454 41.74-8.454 41.74l-.088 15.454 123.545-.309s-37.688-31.055-53.275-47.11c-15.586-16.057-40.242-49.225-40.242-49.225Z" style="display:inline;fill:#484537;fill-opacity:1;stroke:#000;stroke-width:.377953;stroke-linejoin:bevel;stroke-dasharray:none;stroke-dashoffset:0;stroke-opacity:1;paint-order:stroke fill markers"/><path d="m46.67 102.676-6.515 16.29.88 6.517 21.662-1.321zM38.217 140.189l9.51 36.808.177 22.014" style="fill:#484537;fill-opacity:1;stroke:#000;stroke-width:.377953;stroke-linejoin:bevel;stroke-dasharray:none;stroke-dashoffset:0;stroke-opacity:1;paint-order:stroke fill markers"/><path d="m55.79 116.936-11.954 16.19 84.06 57.908" style="fill:#484537;fill-opacity:1;stroke:#000;stroke-width:.377953;stroke-linejoin:bevel;stroke-dasharray:none;stroke-dashoffset:0;stroke-opacity:1;paint-order:stroke fill markers"/><path d="M40.507 118.526s-12.839 16.558-15.498 23.776c-5.194 14.095-8.454 41.74-8.454 41.74l.093 15.348 104.344.158s-3.374-10.674-7.538-15.274c-9.084-10.036-30.955-30.35-34.818-34.18-15.882-15.75-32.141-47.242-32.141-47.242Z" style="display:inline;fill:#484537;fill-opacity:1;stroke:#000;stroke-width:.377953;stroke-linejoin:bevel;stroke-dasharray:none;stroke-dashoffset:0;stroke-opacity:1;paint-order:stroke fill markers" transform="matrix(-1.00003 0 0 .97688 194.769 4.614)"/><path d="m46.67 102.676-6.515 16.29.88 6.517 17.612 1.744zM38.217 140.189l9.51 36.808.177 22.014" style="fill:#484537;fill-opacity:1;stroke:#000;stroke-width:.377953;stroke-linejoin:bevel;stroke-dasharray:none;stroke-dashoffset:0;stroke-opacity:1;paint-order:stroke fill markers" transform="matrix(-1.00003 0 0 .97688 194.769 4.614)"/><path d="m54.579 117.329-10.215 19.65 70.568 49.038z" style="fill:#484537;fill-opacity:1;stroke:#000;stroke-width:.382393;stroke-linecap:butt;stroke-linejoin:bevel;stroke-dasharray:none;stroke-dashoffset:0;stroke-opacity:1;paint-order:markers stroke fill" transform="matrix(-1.00003 0 0 .97688 194.769 4.614)"/><path d="m42.59 113.076-2.989 7.472 54.048 53.798 4.981-.249 55.542-54.794-2.242-5.729-53.798 59.278-4.234.249z" style="fill:#e6e6e6;fill-opacity:1;stroke:#000;stroke-width:.377953;stroke-linecap:butt;stroke-linejoin:bevel;stroke-dasharray:none;stroke-dashoffset:0;stroke-opacity:1;paint-order:markers stroke fill"/><path d="m93.15 174.222-1.992 1.992-6.476.125-.373 22.914 26.276-.623-1.619-22.79-7.596.125-2.242-1.992z" style="fill:#1a1a1a;fill-opacity:1;stroke:#000;stroke-width:.377953;stroke-linecap:butt;stroke-linejoin:bevel;stroke-dasharray:none;stroke-dashoffset:0;stroke-opacity:1;paint-order:markers stroke fill"/></g></svg>